:version 1.10
:name ASF
:units
  mass 1
  length 1
  angle deg
:documentation
  ASF file generated by Kaydara
:root
  axis xyz
  order  tx ty tz rx ry rz
  position 0 0 0
  orientation 0 0 0
:bonedata
  begin
    id 1
    name RightUpLegDummy
    direction -1 2.30186e-007 8.31532e-007
    length 4.46685
    axis 0 0 0 xyz
  end
  begin
    id 2
    name RightUpLeg
    direction -2.30187e-007 -1 1.24343e-010
    length 16.4045
    axis -3.49089 -0.000906625 0.000286804 xyz
    dof rx ry rz
  end
  begin
    id 3
    name RightLeg
    direction -2.30181e-007 -1 -4.17157e-009
    length 17.5097
    axis 3.68512 0.0193738 -0.131023 xyz
    dof rx ry rz
  end
  begin
    id 4
    name RightFoot
    direction 8.31421e-007 -4.51202e-011 1
    length 6.49508
    axis 4.81691e-005 -0.120479 -0.188788 xyz
    dof rx ry rz
  end
  begin
    id 5
    name RightToes
    direction 0.00124746 -0.014064 0.9999
    length 3.85082
    axis 0.000481921 0.542163 -0.142578 xyz
    dof rx ry rz
  end
  begin
    id 6
    name SpineDummy
    direction 0.0717043 0.9409 -0.331007
    length 10.0032
    axis 0 0 0 xyz
  end
  begin
    id 7
    name Spine
    direction 2.30186e-007 1 4.58806e-011
    length 9.84055
    axis -0.001389 0.000121418 2.40972e-006 xyz
    dof rx ry rz
  end
  begin
    id 8
    name Spine1
    direction 0 0 0
    length 0
    axis -0.001389 0.000121451 1.30017e-006 xyz
    dof rx ry rz
  end
  begin
    id 9
    name HEadDummy
    direction -0.00347485 0.950688 -0.310128
    length 8.00997
    axis -0.001389 0.000121451 1.30017e-006 xyz
  end
  begin
    id 10
    name HEad
    direction -0.0222688 0.980941 0.193023
    length 5.12695
    axis -0.001389 0.000121451 1.30017e-006 xyz
    dof rx ry rz
  end
  begin
    id 11
    name LeftShoulder1Dummy
    direction 0.988871 0.146793 -0.0242004
    length 3.5792
    axis -0.001389 0.000121451 1.30017e-006 xyz
  end
  begin
    id 12
    name LeftShoulder1
    direction 0.993832 0.108932 0.020779
    length 4.16823
    axis -0.001389 0.000121451 1.30017e-006 xyz
    dof rx ry rz
  end
  begin
    id 13
    name LeftArm
    direction 1 3.44807e-006 -8.31404e-007
    length 9.91437
    axis -23.1894 0.134784 0.967509 xyz
    dof rx ry rz
  end
  begin
    id 14
    name LeftForeArm
    direction 1 3.44842e-006 -8.31581e-007
    length 9.08575
    axis -9.91835 -0.06569 -0.177793 xyz
    dof rx ry rz
  end
  begin
    id 15
    name LeftHand
    direction 0.992938 -0.0411636 0.11126
    length 5.32135
    axis -0.00960232 -0.00340091 0.185173 xyz
    dof rx ry rz
  end
  begin
    id 16
    name RightShoulderDummy
    direction -0.988871 0.146793 -0.0241962
    length 3.5792
    axis -0.001389 0.000121451 1.30017e-006 xyz
  end
  begin
    id 17
    name RightShoulder
    direction -0.993832 0.108933 0.0207785
    length 4.16823
    axis 0.215806 0.000203643 -0.0068026 xyz
    dof rx ry rz
  end
  begin
    id 18
    name RightArm
    direction -1 3.90912e-006 8.31284e-007
    length 9.91437
    axis -23.2009 -0.134239 -0.964101 xyz
    dof rx ry rz
  end
  begin
    id 19
    name RightForeArm
    direction -1 3.90882e-006 8.31502e-007
    length 9.08575
    axis -9.92322 0.0658061 0.178867 xyz
    dof rx ry rz
  end
  begin
    id 20
    name RightHand
    direction -0.992843 -0.0414603 0.112003
    length 5.28593
    axis -0.00960638 0.00330671 -0.185228 xyz
    dof rx ry rz
  end
  begin
    id 21
    name LeftUpLegDummy
    direction 1 -2.30186e-007 -8.31532e-007
    length 4.46685
    axis 0 0 0 xyz
  end
  begin
    id 22
    name LeftUpLeg
    direction -2.30187e-007 -1 6.00931e-010
    length 16.4045
    axis -3.48766 0.00143442 -0.000524262 xyz
    dof rx ry rz
  end
  begin
    id 23
    name LeftLeg
    direction -2.30187e-007 -1 1.6669e-009
    length 17.5097
    axis 3.68178 -0.00654042 -0.000285133 xyz
    dof rx ry rz
  end
  begin
    id 24
    name LeftFoot
    direction 8.31532e-007 -4.54478e-011 1
    length 6.49508
    axis 1.87233e-006 4.66016e-005 -8.6538e-006 xyz
    dof rx ry rz
  end
  begin
    id 25
    name LeftToes
    direction 0.00818058 -0.00485161 0.999955
    length 3.85048
    axis 1.06247e-005 4.65869e-005 -8.65513e-006 xyz
    dof rx ry rz
  end
:hierarchy
  begin
    root RightUpLegDummy SpineDummy LeftUpLegDummy
    RightUpLegDummy RightUpLeg
    RightUpLeg RightLeg
    RightLeg RightFoot
    RightFoot RightToes
    SpineDummy Spine
    Spine Spine1
    Spine1 HEadDummy LeftShoulder1Dummy RightShoulderDummy
    HEadDummy HEad
    LeftShoulder1Dummy LeftShoulder1
    LeftShoulder1 LeftArm
    LeftArm LeftForeArm
    LeftForeArm LeftHand
    RightShoulderDummy RightShoulder
    RightShoulder RightArm
    RightArm RightForeArm
    RightForeArm RightHand
    LeftUpLegDummy LeftUpLeg
    LeftUpLeg LeftLeg
    LeftLeg LeftFoot
    LeftFoot LeftToes
  end

:SAMPLES-PER-SECOND 30
:FULLY-SPECIFIED
:DEGREES
48
root  -58.3456 33.6845 9.11671 2.13147 49.821 3.42952
RightUpLeg  8.60441 -18.9048 -5.92731
RightLeg  10.4179 -1.3739 -0.160791
RightFoot  -6.10351 -0.00890359 0.21516
RightToes  -26.1843 -0.121231 -0.227665
Spine  3.99177 -3.29232 0.326916
Spine1  7.60426 -6.62082 0.704675
HEad  22.813 43.808 -5.10952
LeftShoulder1  0 -2.42657e-020 -4.95415e-022
LeftArm  -42.2849 6.40727 -67.53
LeftForeArm  55.5083 -15.9271 -2.84427
LeftHand  0.302919 -11.3053 -3.43177
RightShoulder  0 2.42657e-020 1.07489e-018
RightArm  -75.3835 -24.2064 80.1332
RightForeArm  -24.7292 63.1987 20.3257
RightHand  1.87944 11.5616 18.7867
LeftUpLeg  -9.59412 10.8212 2.62793
LeftLeg  6.20659 -14.2069 -0.620724
LeftFoot  15.4617 0.527559 -3.8847
LeftToes  -19.9132 1.71452e-006 7.46813e-008
49
root  -58.3592 33.6924 9.10822 1.96319 49.6782 3.29678
RightUpLeg  8.58912 -18.6155 -5.80617
RightLeg  10.4362 -1.48447 -0.174317
RightFoot  -5.95899 -0.0084307 0.220635
RightToes  -26.289 -0.121665 -0.228156
Spine  4.01217 -3.28609 0.393429
Spine1  7.64386 -6.61223 0.828429
HEad  23.4403 43.3885 -4.98565
LeftShoulder1  0 -2.42657e-020 -4.95415e-022
LeftArm  -42.2401 6.41065 -67.6188
LeftForeArm  55.4386 -16.0113 -2.86044
LeftHand  0.312566 -11.2358 -3.54889
RightShoulder  0 2.42657e-020 1.07489e-018
RightArm  -75.9216 -23.9762 79.5465
RightForeArm  -24.794 62.7035 19.8771
RightHand  1.90991 11.5684 19.0692
LeftUpLeg  -9.62375 10.7304 2.7395
LeftLeg  6.40927 -13.9584 -0.659106
LeftFoot  15.3942 0.513821 -3.80039
LeftToes  -19.9583 1.71452e-006 7.46813e-008
50
root  -58.3845 33.7032 9.06817 1.60092 49.4798 3.02933
RightUpLeg  8.45536 -18.2176 -5.61961
RightLeg  10.7262 -1.6185 -0.198505
RightFoot  -5.78649 -0.00767805 0.225655
RightToes  -26.7469 -0.122174 -0.228733
Spine  4.10679 -3.27609 0.51683
Spine1  7.83101 -6.6035 1.06284
HEad  24.1034 42.8211 -4.75125
LeftShoulder1  0 -2.42657e-020 -4.95415e-022
LeftArm  -41.9531 6.37818 -67.7933
LeftForeArm  55.2317 -16.2591 -2.90811
LeftHand  0.328483 -11.3539 -3.67571
RightShoulder  0 2.42657e-020 1.07489e-018
RightArm  -77.4354 -23.2076 78.1955
RightForeArm  -23.6712 61.4162 18.7912
RightHand  2.15998 12.3172 20.2004
LeftUpLeg  -9.73366 10.5669 2.92105
LeftLeg  6.8719 -13.5827 -0.750701
LeftFoot  15.2291 0.489553 -3.66071
LeftToes  -20.0313 1.71452e-006 7.46813e-008
51
root  -58.4369 33.7116 8.9633 1.21861 49.2502 2.60653
RightUpLeg  7.87173 -17.7718 -5.29331
RightLeg  11.4452 -1.83454 -0.248641
RightFoot  -5.75067 -0.00682353 0.241722
RightToes  -26.8692 -0.122967 -0.229628
Spine  4.29725 -3.31937 0.74561
Spine1  8.20469 -6.70865 1.49101
HEad  24.6518 42.0924 -4.86976
LeftShoulder1  0 -2.42657e-020 -4.95415e-022
LeftArm  -40.7719 6.31855 -67.9946
LeftForeArm  54.499 -16.834 -3.01968
LeftHand  0.343155 -11.3791 -3.81555
RightShoulder  0 2.42657e-020 1.07489e-018
RightArm  -79.4095 -21.6367 75.7584
RightForeArm  -21.7619 59.8158 17.5702
RightHand  2.51191 13.482 21.3962
LeftUpLeg  -10.3248 9.69876 3.14554
LeftLeg  7.90483 -12.4614 -0.913727
LeftFoot  14.9066 0.430219 -3.28766
LeftToes  -20.301 1.71452e-006 7.46813e-008
52
root  -58.5029 33.7173 8.69229 1.4246 49.6163 2.44741
RightUpLeg  6.47131 -19.3982 -5.69096
RightLeg  13.0544 -0.560615 -0.0914986
RightFoot  -5.78441 -0.0134615 0.111112
RightToes  -28.4399 -0.133327 -0.240978
Spine  4.47342 -3.54196 0.989437
Spine1  8.54511 -7.17577 1.9339
HEad  25.129 40.9704 -4.83217
LeftShoulder1  0 -2.42657e-020 -4.95415e-022
LeftArm  -39.5782 5.84825 -68.2795
LeftForeArm  54.6192 -17.3302 -3.11506
LeftHand  0.344604 -11.5012 -3.79313
RightShoulder  0 2.42657e-020 1.07489e-018
RightArm  -81.0179 -19.9432 72.4677
RightForeArm  -18.0298 58.722 16.8172
RightHand  2.76291 14.7441 21.4957
LeftUpLeg  -12.0411 8.05585 2.90535
LeftLeg  9.75872 -11.1706 -1.18267
LeftFoot  14.5976 0.370598 -2.89285
LeftToes  -19.9254 1.71452e-006 7.46813e-008
